<?xml version="1.0" encoding="UTF-8" standalone="no"?>
<!-- Generator: Adobe Illustrator 15.0.0, SVG Export Plug-In . SVG Version: 6.00 Build 0)  -->

<svg
   xmlns:dc="http://purl.org/dc/elements/1.1/"
   xmlns:cc="http://creativecommons.org/ns#"
   xmlns:rdf="http://www.w3.org/1999/02/22-rdf-syntax-ns#"
   xmlns:svg="http://www.w3.org/2000/svg"
   xmlns="http://www.w3.org/2000/svg"
   xmlns:sodipodi="http://sodipodi.sourceforge.net/DTD/sodipodi-0.dtd"
   xmlns:inkscape="http://www.inkscape.org/namespaces/inkscape"
   version="1.1"
   id="レイヤー_1"
   x="0px"
   y="0px"
   width="534.66394"
   height="726.38202"
   viewBox="0 0 534.66393 726.38205"
   enable-background="new 0 0 401.98 559.472"
   xml:space="preserve"
   sodipodi:docname="nextdhcp-logo.svg"
   inkscape:version="0.92.4 5da689c313, 2019-01-14"><metadata
   id="metadata3858"><rdf:RDF><cc:Work
       rdf:about=""><dc:format>image/svg+xml</dc:format><dc:type
         rdf:resource="http://purl.org/dc/dcmitype/StillImage" /><dc:title></dc:title></cc:Work></rdf:RDF></metadata><defs
   id="defs3856" /><sodipodi:namedview
   pagecolor="#ffffff"
   bordercolor="#666666"
   borderopacity="1"
   objecttolerance="10"
   gridtolerance="10"
   guidetolerance="10"
   inkscape:pageopacity="0"
   inkscape:pageshadow="2"
   inkscape:window-width="1920"
   inkscape:window-height="1080"
   id="namedview3854"
   showgrid="false"
   inkscape:zoom="0.59655248"
   inkscape:cx="-27.452976"
   inkscape:cy="204.5533"
   inkscape:window-x="0"
   inkscape:window-y="-16"
   inkscape:window-maximized="0"
   inkscape:current-layer="レイヤー_1"
   fit-margin-top="50"
   fit-margin-left="50"
   fit-margin-right="50"
   fit-margin-bottom="50" />
<path
   d="m 74.896238,337.369 c 0.764,15.751 16.499,8.463 23.626,3.539 6.765002,-4.675 8.743002,-0.789 9.337002,-10.015 0.389,-6.064 1.088,-12.128 0.744,-18.216 -10.230002,-0.927 -21.357002,1.509 -29.744002,7.602 -4.32,3.139 -12.42,13.158 -3.963,17.09"
   id="path3799"
   style="clip-rule:evenodd;fill:#f6d2a2;fill-rule:evenodd;stroke:#000000;stroke-width:0;stroke-linecap:round;stroke-miterlimit:4;stroke-dasharray:none"
   inkscape:connector-curvature="0" />
<path
   d="m 74.896238,337.369 c 2.29,-0.852 4.717,-1.457 6.271,-3.528"
   id="path3801"
   style="clip-rule:evenodd;fill:#c6b198;fill-rule:evenodd;stroke:#000000;stroke-width:0.2;stroke-linecap:round;stroke-miterlimit:4;stroke-dasharray:none"
   inkscape:connector-curvature="0" />
<path
   d="M 111.25924,149.729 C 50.962238,132.773 95.798238,56.065001 144.21824,87.616001 Z"
   id="path3803"
   style="clip-rule:evenodd;fill:#6ad7e5;fill-rule:evenodd;stroke:#000000;stroke-width:0;stroke-linecap:round;stroke-miterlimit:4;stroke-dasharray:none"
   inkscape:connector-curvature="0" />
<path
   d="m 379.15724,81.860001 c 47.727,-33.523 90.856,42.110999 35.388,61.140999 z"
   id="path3805"
   style="clip-rule:evenodd;opacity:1;fill:#6ad7e5;fill-rule:evenodd;stroke:#000000;stroke-width:0;stroke-linecap:round;stroke-miterlimit:4;stroke-dasharray:none"
   inkscape:connector-curvature="0" />
<path
   d="m 389.42324,531.219 c 12.123,7.501 34.282,30.182 16.096,41.18 -17.474,15.999 -27.254,-17.561 -42.591,-22.211 6.605,-8.97 14.977,-17.149 26.495,-18.969 z"
   id="path3807"
   style="clip-rule:evenodd;fill:#f6d2a2;fill-rule:evenodd;stroke:#000000;stroke-width:0;stroke-linecap:round;stroke-miterlimit:4;stroke-dasharray:none"
   inkscape:connector-curvature="0" />
<path
   d="m 405.51924,572.398 c -2.696,-5.361 -3.601,-11.618 -8.102,-15.939"
   id="path3809"
   style="clip-rule:evenodd;fill:none;fill-rule:evenodd;stroke:#000000;stroke-width:0.2;stroke-linecap:round;stroke-miterlimit:4;stroke-dasharray:none"
   inkscape:connector-curvature="0" />
<path
   d="m 172.84124,556.851 c -14.229,2.202 -22.238,15.039 -34.1,21.558 -11.178,6.665 -15.454,-2.134 -16.461,-3.92 -1.752,-0.799 -1.605,0.744 -4.309,-1.979 -10.362,-16.354 10.797,-28.308 21.815,-36.432 15.346,-3.102 24.963,10.202 33.055,20.773 z"
   id="path3811"
   style="clip-rule:evenodd;fill:#f6d2a2;fill-rule:evenodd;stroke:#000000;stroke-width:0;stroke-linecap:round;stroke-miterlimit:4;stroke-dasharray:none"
   inkscape:connector-curvature="0" />
<path
   d="m 122.28124,574.488 c 0.542,-6.233 5.484,-10.407 7.838,-15.677"
   id="path3813"
   style="clip-rule:evenodd;fill:none;fill-rule:evenodd;stroke:#000000;stroke-width:0.2;stroke-linecap:round;stroke-miterlimit:4;stroke-dasharray:none"
   inkscape:connector-curvature="0" />
<path
   d="m 113.77524,128.543 c -7.955,-4.208 -13.791002,-9.923 -8.925,-19.124 4.505,-8.518 12.874,-7.593 20.83,-3.385 z"
   id="path3815"
   inkscape:connector-curvature="0"
   style="clip-rule:evenodd;fill-rule:evenodd" />
<path
   d="m 401.97824,120.543 c 7.955,-4.208 13.791,-9.923 8.925,-19.124 -4.505,-8.517999 -12.874,-7.592999 -20.83,-3.384999 z"
   id="path3817"
   inkscape:connector-curvature="0"
   style="clip-rule:evenodd;fill-rule:evenodd" />
<path
   d="m 456.73724,335.369 c -0.764,15.751 -16.499,8.463 -23.626,3.539 -6.765,-4.675 -8.743,-0.789 -9.337,-10.015 -0.389,-6.064 -1.088,-12.128 -0.744,-18.216 10.23,-0.927 21.357,1.509 29.744,7.602 4.319,3.139 12.42,13.158 3.963,17.09"
   id="path3819"
   style="clip-rule:evenodd;fill:#f6d2a2;fill-rule:evenodd;stroke:#000000;stroke-width:0;stroke-linecap:round;stroke-miterlimit:4;stroke-dasharray:none"
   inkscape:connector-curvature="0" />
<path
   d="m 456.73724,335.369 c -2.29,-0.852 -4.717,-1.457 -6.271,-3.528"
   id="path3821"
   style="clip-rule:evenodd;fill:#c6b198;fill-rule:evenodd;stroke:#000000;stroke-width:0.2;stroke-linecap:round;stroke-miterlimit:4;stroke-dasharray:none"
   inkscape:connector-curvature="0" />
<g
   id="g3825"
   style="stroke-width:0;stroke-miterlimit:4;stroke-dasharray:none"
   transform="translate(64.262238,36.876)">
	<path
   d="m 195.512,13.124 c 60.365,0 116.953,8.633 146.452,66.629 26.478,65.006 17.062,135.104 21.1,203.806 3.468,58.992 11.157,127.145 -16.21,181.812 -28.79,57.514 -100.73,71.982 -160,69.863 C 140.299,533.568 84.06,518.38 57.785,475.845 26.959,425.945 41.553,351.747 43.792,296.223 46.444,230.452 25.977,164.481 47.584,100.122 69.999,33.359 130.451,18.271 195.512,13.124"
   id="path3823"
   style="clip-rule:evenodd;fill:#6ad7e5;fill-rule:evenodd;stroke:#000000;stroke-width:0;stroke-linecap:round;stroke-miterlimit:4;stroke-dasharray:none"
   inkscape:connector-curvature="0" />
</g>
<path
   d="m 270.43124,131.036 c 10.838,63.003 113.822,46.345 99.03,-17.197 -13.264,-56.979999 -102.632,-41.207999 -99.03,17.197"
   id="path3827"
   style="clip-rule:evenodd;fill:#ffffff;fill-rule:evenodd;stroke:#000000;stroke-width:0;stroke-linecap:round;stroke-miterlimit:4;stroke-dasharray:none"
   inkscape:connector-curvature="0" />
<path
   d="m 147.36524,141.226 c 14.047,54.85 101.864,40.807 98.554,-14.213 -3.966,-65.894999 -111.984,-53.179999 -98.554,14.213"
   id="path3829"
   style="clip-rule:evenodd;fill:#ffffff;fill-rule:evenodd;stroke:#000000;stroke-width:0;stroke-linecap:round;stroke-miterlimit:4;stroke-dasharray:none"
   inkscape:connector-curvature="0" />
<path
   d="m 285.23755,206.138 c 0.0442,8.191 1.78934,17.387 0.29998,26.101 -2.01049,3.952 -5.95455,4.37 -9.3544,5.967 -4.70172,-0.767 -8.6554,-3.978 -10.54089,-8.552 -1.20668,-9.946 0.44998,-19.576 0.75477,-29.526 z"
   id="path3831"
   style="clip-rule:evenodd;fill:#ffffff;fill-rule:evenodd;stroke:#000000;stroke-width:0;stroke-linecap:round;stroke-miterlimit:4;stroke-dasharray:none"
   inkscape:connector-curvature="0" />
<g
   id="g3837"
   transform="rotate(1.8238024,-1018.9273,2132.5061)">
	<ellipse
   cx="107.324"
   cy="95.403999"
   rx="14.829"
   ry="16.062"
   id="ellipse3833"
   style="clip-rule:evenodd;fill-rule:evenodd" />
	<ellipse
   cx="114.069"
   cy="99.028999"
   rx="3.4960001"
   ry="4.0819998"
   id="ellipse3835"
   style="clip-rule:evenodd;fill:#ffffff;fill-rule:evenodd" />
</g>
<g
   id="g3843"
   transform="translate(64.262238,36.876)">
	<ellipse
   cx="231.571"
   cy="91.403999"
   rx="14.582"
   ry="16.062"
   id="ellipse3839"
   style="clip-rule:evenodd;fill-rule:evenodd" />
	<ellipse
   cx="238.20399"
   cy="95.028999"
   rx="3.438"
   ry="4.0819998"
   id="ellipse3841"
   style="clip-rule:evenodd;fill:#ffffff;fill-rule:evenodd" />
</g>
<path
   d="m 240.47924,205.746 c -6.47,15.68 3.608,47.035 21.163,23.908 -1.255,-9.946 0.468,-19.576 0.785,-29.526 z"
   id="path3845"
   style="clip-rule:evenodd;fill:#ffffff;fill-rule:evenodd;stroke:#000000;stroke-width:0;stroke-linecap:round;stroke-miterlimit:4;stroke-dasharray:none"
   inkscape:connector-curvature="0" />
<g
   id="g3851"
   transform="matrix(1,0,0,1.0641981,64.262238,25.789861)"
   style="stroke-width:0.09693682;stroke-miterlimit:4;stroke-dasharray:none">
	<path
   d="m 178.431,138.673 c -12.059,1.028 -21.916,15.366 -15.646,26.709 8.303,15.024 26.836,-1.329 38.379,0.203 13.285,0.272 24.17,14.047 34.84,2.49 11.867,-12.854 -5.109,-25.373 -18.377,-30.97 z"
   id="path3847"
   inkscape:connector-curvature="0"
   style="clip-rule:evenodd;fill:#f6d2a2;fill-rule:evenodd;stroke:#231f20;stroke-width:0.09693682;stroke-linecap:round;stroke-miterlimit:4;stroke-dasharray:none" />
	<path
   d="m 176.913,138.045 c -0.893,-20.891 38.938,-23.503 43.642,-6.016 4.692,17.446 -41.681,21.498 -43.642,6.016 -1.565,-12.363 0,0 0,0 z"
   id="path3849"
   inkscape:connector-curvature="0"
   style="clip-rule:evenodd;fill-rule:evenodd;stroke-width:0.09693682;stroke-miterlimit:4;stroke-dasharray:none" />
</g>
<path
   style="fill:#ff9955;fill-opacity:1;stroke:#000000;stroke-width:0;stroke-linecap:butt;stroke-linejoin:miter;stroke-miterlimit:4;stroke-dasharray:none;stroke-opacity:1"
   d="m 108.16674,312.40555 -0.57559,29.66034 -3.60791,47.55415 -1.38056,29.30472 0.421,39.42352 2.95539,24.51771 5.65895,23.42348 5.81434,14.96704 10.31542,14.41903 10.10546,10.50432 17.37634,14.58931 32.70866,14.24854 45.09415,10.25244 32.0942,0.64439 34.11095,-2.37153 28.27517,-5.35452 23.13018,-8.19968 17.98056,-8.85752 11.81379,-8.84529 15.47977,-13.87111 10.9177,-16.20058 14.25761,-31.84967 5.87079,-32.68782 4.19342,-40.23117 -1.25936,-49.86987 -2.44383,-51.00436 z"
   id="path5514"
   inkscape:connector-curvature="0"
   sodipodi:nodetypes="ccccccccccccccccccccccccccc" /><path
   style="opacity:0.50400002;fill:#ffb380;fill-opacity:1;stroke-width:0;stroke-miterlimit:4;stroke-dasharray:none"
   d="m 264.3346,368.18925 c -26.16509,6e-5 -52.22754,6.28183 -71.81693,18.04174 -19.58939,11.7599 -32.95093,29.87198 -32.95085,49.42893 -8e-5,19.55693 13.36146,37.66901 32.95085,49.42892 19.58939,11.7599 45.65184,18.04167 71.81693,18.04173 26.16511,-6e-5 52.22755,-6.28183 71.81694,-18.04173 19.5894,-11.75991 32.95093,-29.87199 32.95086,-49.42892 7e-5,-19.55695 -13.36146,-37.66903 -32.95086,-49.42893 -19.58939,-11.75991 -45.65183,-18.04168 -71.81694,-18.04174 z m 0,12.46703 a 91.62419,55.003506 0 0 1 91.62386,55.00364 91.62419,55.003506 0 0 1 -91.62386,55.00362 91.62419,55.003506 0 0 1 -91.62384,-55.00362 91.62419,55.003506 0 0 1 91.62384,-55.00364 z"
   id="path5618"
   inkscape:connector-curvature="0" /><path
   inkscape:connector-curvature="0"
   id="path4796"
   d="m 238.57084,351.57673 -3.002,1.15745 c -1.5082,1.25491 -2.4485,2.15367 -3.0352,4.01896 -0.3765,1.19698 -0.6074,2.79197 -0.7493,5.1345 -0.087,1.42927 -0.14,3.13683 -0.1732,5.20206 -0.025,1.52877 -0.038,3.25353 -0.046,5.20648 -0.01,1.5803 -0.01,3.31003 -0.01,5.20622 v 4.579 4.57851 4.57899 4.57918 l -4.309,2.29145 c -0.8988,0.47807 -1.7669,0.98658 -2.5125,1.46305 -1.2204,0.77979 -2.11308,1.47376 -2.27707,1.80801 -0.82172,1.67492 -0.85953,4.02837 -0.78421,5.9773 v 0.33229 l 8.45918,-0.0294 h 5.5432 5.5425 5.5433 5.543 5.5426 5.5429 c -1.9882,0 -3.7403,-2e-5 -5.2725,-1.5e-4 -2.191,-1.8e-4 -3.9323,-5.6e-4 -5.2716,-0.002 -4.3572,-0.003 -4.4683,0.0216 -1.9494,-4e-5 1.2117,-0.0104 3.0503,0.008 5.2614,-0.01 1.5704,-0.0126 3.3694,0.006 5.2932,-0.0116 1.6621,-0.0146 3.4019,0.0443 5.2408,0.0259 1.709,-0.017 3.4562,-0.0151 5.2507,-0.003 1.763,0.0122 3.4581,0.0118 5.2207,-0.012 1.772,-0.024 3.6011,0.0469 5.3335,0.0189 1.8066,-0.0292 3.5131,0.0171 5.2098,0.0126 1.8896,-0.005 3.6713,-0.0149 5.3121,-0.0137 1.9626,0.001 4.4142,-0.0349 5.9292,-0.032 1.3226,0.003 5.9721,-0.009 5.9721,-0.009 0,0 0.074,-2.91106 0.074,-4.27189 0,-1.55549 -0.351,-2.42224 -2.0178,-3.53861 -0.8497,-0.56908 -2.0413,-1.20304 -3.7027,-2.02616 l -3.8587,-1.91162 v -4.58636 -4.58589 -4.58635 -4.58656 c -10e-4,-1.89819 0,-3.62977 -0.01,-5.21184 -0.01,-1.95484 -0.021,-3.68138 -0.045,-5.21179 -0.033,-2.06799 -0.087,-3.77788 -0.1729,-5.2091 -0.1416,-2.34531 -0.372,-3.94235 -0.7478,-5.14063 -0.5865,-1.87027 -1.5273,-2.76911 -3.0373,-4.02549 l -2.8381,-1.24345 -4.3534,-0.43006 h -5.1789 -5.1783 -5.1782 -5.1787 -5.1785 -5.1789 -5.1783 -5.1782 l -4.1887,0.51608 m 0.3629,8.38098 h 4.7894 4.7897 4.7893 4.7898 4.7888 4.7893 4.7898 4.7892 4.7898 4.7888 v 4.35393 4.35348 4.35391 4.35412 5.80513 5.80511 5.80518 h -4.789 -4.7898 -4.7892 -4.7898 -4.7888 -4.7894 -4.7897 -4.7892 -4.7899 -4.7888 v -5.80513 -5.80512 -5.80517 -4.35393 -4.35348 -4.35391 -4.35412"
   style="fill:#f6ffd5;fill-opacity:1;stroke-width:0.5558123"
   sodipodi:nodetypes="ccssssccccccsccccccccccsssssssssssscssccccccssssccccccccccccccccccccccccccccccccccccccccccccccc" /><path
   inkscape:connector-curvature="0"
   id="path4796-6"
   d="m 337.08427,409.93931 -3.002,1.15745 c -1.5082,1.25491 -2.4485,2.15367 -3.0352,4.01896 -0.3765,1.19698 -0.6074,2.79197 -0.7493,5.1345 -0.087,1.42927 -0.14,3.13683 -0.1732,5.20206 -0.025,1.52877 -0.038,3.25353 -0.046,5.20648 -0.01,1.5803 -0.01,3.31003 -0.01,5.20622 v 4.579 4.57851 4.57899 4.57918 l -4.309,2.29145 c -0.8988,0.47807 -1.7669,0.98658 -2.5125,1.46305 -1.2204,0.77979 -2.11308,1.47376 -2.27707,1.80801 -0.82172,1.67492 -0.85953,4.02837 -0.78421,5.9773 v 0.33229 l 8.45918,-0.0294 h 5.5432 5.5425 5.5433 5.543 5.5426 5.5429 c -1.9882,0 -3.7403,-2e-5 -5.2725,-1.5e-4 -2.191,-1.8e-4 -3.9323,-5.6e-4 -5.2716,-0.002 -4.3572,-0.003 -4.4683,0.0216 -1.9494,-4e-5 1.2117,-0.0104 3.0503,0.008 5.2614,-0.01 1.5704,-0.0126 3.3694,0.006 5.2932,-0.0116 1.6621,-0.0146 3.4019,0.0443 5.2408,0.0259 1.709,-0.017 3.4562,-0.0151 5.2507,-0.003 1.763,0.0122 3.4581,0.0118 5.2207,-0.012 1.772,-0.024 3.6011,0.0469 5.3335,0.0189 1.8066,-0.0292 3.5131,0.0171 5.2098,0.0126 1.8896,-0.005 3.6713,-0.0149 5.3121,-0.0137 1.9626,10e-4 4.4142,-0.0349 5.9292,-0.032 1.3226,0.003 5.9721,-0.009 5.9721,-0.009 0,0 0.074,-2.91106 0.074,-4.27189 0,-1.55549 -0.351,-2.42224 -2.0178,-3.53861 -0.8497,-0.56908 -2.0413,-1.20304 -3.7027,-2.02616 l -3.8587,-1.91162 v -4.58636 -4.58589 -4.58635 -4.58656 c -0.001,-1.89819 0,-3.62977 -0.01,-5.21184 -0.01,-1.95484 -0.021,-3.68138 -0.045,-5.21179 -0.033,-2.06799 -0.087,-3.77788 -0.1729,-5.2091 -0.1416,-2.34531 -0.372,-3.94235 -0.7478,-5.14063 -0.5865,-1.87027 -1.5273,-2.76911 -3.0373,-4.02549 l -2.8381,-1.24345 -4.3534,-0.43006 h -5.1789 -5.1783 -5.1782 -5.1787 -5.1785 -5.1789 -5.1783 -5.1782 l -4.1887,0.51608 m 0.3629,8.38098 h 4.7894 4.7897 4.7893 4.7898 4.7888 4.7893 4.7898 4.7892 4.7898 4.7888 v 4.35393 4.35348 4.35391 4.35412 5.80513 5.80511 5.80518 h -4.789 -4.7898 -4.7892 -4.7898 -4.7888 -4.7894 -4.7897 -4.7892 -4.7899 -4.7888 v -5.80513 -5.80512 -5.80517 -4.35393 -4.35348 -4.35391 -4.35412"
   style="fill:#f6ffd5;fill-opacity:1;stroke-width:0.5558123"
   sodipodi:nodetypes="ccssssccccccsccccccccccsssssssssssscssccccccssssccccccccccccccccccccccccccccccccccccccccccccccc" /><path
   inkscape:connector-curvature="0"
   id="path4796-6-2"
   d="m 241.29706,470.83476 -3.002,1.15745 c -1.5082,1.25491 -2.4485,2.15367 -3.0352,4.01896 -0.3765,1.19698 -0.6074,2.79197 -0.7493,5.1345 -0.087,1.42927 -0.14,3.13683 -0.1732,5.20206 -0.025,1.52877 -0.038,3.25353 -0.046,5.20648 -0.01,1.5803 -0.01,3.31003 -0.01,5.20622 v 4.579 4.57851 4.57899 4.57918 l -4.309,2.29145 c -0.8988,0.47807 -1.7669,0.98658 -2.5125,1.46305 -1.2204,0.77979 -2.11308,1.47376 -2.27707,1.80801 -0.82172,1.67492 -0.85953,4.02837 -0.78421,5.9773 v 0.33229 l 8.45918,-0.0294 h 5.5432 5.5425 5.5433 5.543 5.5426 5.5429 c -1.9882,0 -3.7403,-2e-5 -5.2725,-1.5e-4 -2.191,-1.8e-4 -3.9323,-5.6e-4 -5.2716,-0.002 -4.3572,-0.003 -4.4683,0.0216 -1.9494,-4e-5 1.2117,-0.0104 3.0503,0.008 5.2614,-0.01 1.5704,-0.0126 3.3694,0.006 5.2932,-0.0116 1.6621,-0.0146 3.4019,0.0443 5.2408,0.0259 1.709,-0.017 3.4562,-0.0151 5.2507,-0.003 1.763,0.0122 3.4581,0.0118 5.2207,-0.012 1.772,-0.024 3.6011,0.0469 5.3335,0.0189 1.8066,-0.0292 3.5131,0.0171 5.2098,0.0126 1.8896,-0.005 3.6713,-0.0149 5.3121,-0.0137 1.9626,10e-4 4.4142,-0.0349 5.9292,-0.032 1.3226,0.003 5.9721,-0.009 5.9721,-0.009 0,0 0.074,-2.91106 0.074,-4.27189 0,-1.55549 -0.351,-2.42224 -2.0178,-3.53861 -0.8497,-0.56908 -2.0413,-1.20304 -3.7027,-2.02616 l -3.8587,-1.91162 v -4.58636 -4.58589 -4.58635 -4.58656 c -0.001,-1.89819 0,-3.62977 -0.01,-5.21184 -0.01,-1.95484 -0.021,-3.68138 -0.045,-5.21179 -0.033,-2.06799 -0.087,-3.77788 -0.1729,-5.2091 -0.1416,-2.34531 -0.372,-3.94235 -0.7478,-5.14063 -0.5865,-1.87027 -1.5273,-2.76911 -3.0373,-4.02549 l -2.8381,-1.24345 -4.3534,-0.43006 h -5.1789 -5.1783 -5.1782 -5.1787 -5.1785 -5.1789 -5.1783 -5.1782 l -4.1887,0.51608 m 0.3629,8.38098 h 4.7894 4.7897 4.7893 4.7898 4.7888 4.7893 4.7898 4.7892 4.7898 4.7888 v 4.35393 4.35348 4.35391 4.35412 5.80513 5.80511 5.80518 h -4.789 -4.7898 -4.7892 -4.7898 -4.7888 -4.7894 -4.7897 -4.7892 -4.7899 -4.7888 v -5.80513 -5.80512 -5.80517 -4.35393 -4.35348 -4.35391 -4.35412"
   style="fill:#f6ffd5;fill-opacity:1;stroke-width:0.5558123"
   sodipodi:nodetypes="ccssssccccccsccccccccccsssssssssssscssccccccssssccccccccccccccccccccccccccccccccccccccccccccccc" /><path
   inkscape:connector-curvature="0"
   id="path4796-6-2-9"
   d="m 146.76855,411.12462 -3.002,1.15745 c -1.5082,1.25491 -2.4485,2.15367 -3.0352,4.01896 -0.3765,1.19698 -0.6074,2.79197 -0.7493,5.1345 -0.087,1.42927 -0.14,3.13683 -0.1732,5.20206 -0.025,1.52877 -0.038,3.25353 -0.046,5.20648 -0.01,1.5803 -0.01,3.31003 -0.01,5.20622 v 4.579 4.57851 4.57899 4.57918 l -4.309,2.29145 c -0.8988,0.47807 -1.7669,0.98658 -2.5125,1.46305 -1.2204,0.77979 -2.11308,1.47376 -2.27707,1.80801 -0.82172,1.67492 -0.85953,4.02837 -0.78421,5.9773 v 0.33229 l 8.45918,-0.0294 h 5.5432 5.5425 5.5433 5.543 5.5426 5.5429 c -1.9882,0 -3.7403,-2e-5 -5.2725,-1.5e-4 -2.191,-1.8e-4 -3.9323,-5.6e-4 -5.2716,-0.002 -4.3572,-0.003 -4.4683,0.0216 -1.9494,-4e-5 1.2117,-0.0104 3.0503,0.008 5.2614,-0.01 1.5704,-0.0126 3.3694,0.006 5.2932,-0.0116 1.6621,-0.0146 3.4019,0.0443 5.2408,0.0259 1.709,-0.017 3.4562,-0.0151 5.2507,-0.003 1.763,0.0122 3.4581,0.0118 5.2207,-0.012 1.772,-0.024 3.6011,0.0469 5.3335,0.0189 1.8066,-0.0292 3.5131,0.0171 5.2098,0.0126 1.8896,-0.005 3.6713,-0.0149 5.3121,-0.0137 1.9626,0.001 4.4142,-0.0349 5.9292,-0.032 1.3226,0.003 5.9721,-0.009 5.9721,-0.009 0,0 0.074,-2.91106 0.074,-4.27189 0,-1.55549 -0.351,-2.42224 -2.0178,-3.53861 -0.8497,-0.56908 -2.0413,-1.20304 -3.7027,-2.02616 l -3.8587,-1.91162 v -4.58636 -4.58589 -4.58635 -4.58656 c -0.001,-1.89819 0,-3.62977 -0.01,-5.21184 -0.01,-1.95484 -0.021,-3.68138 -0.045,-5.21179 -0.033,-2.06799 -0.087,-3.77788 -0.1729,-5.2091 -0.1416,-2.34531 -0.372,-3.94235 -0.7478,-5.14063 -0.5865,-1.87027 -1.5273,-2.76911 -3.0373,-4.02549 l -2.8381,-1.24345 -4.3534,-0.43006 h -5.1789 -5.1783 -5.1782 -5.1787 -5.1785 -5.1789 -5.1783 -5.1782 l -4.1887,0.51608 m 0.3629,8.38098 h 4.7894 4.7897 4.7893 4.7898 4.7888 4.7893 4.7898 4.7892 4.7898 4.7888 v 4.35393 4.35348 4.35391 4.35412 5.80513 5.80511 5.80518 h -4.789 -4.7898 -4.7892 -4.7898 -4.7888 -4.7894 -4.7897 -4.7892 -4.7899 -4.7888 v -5.80513 -5.80512 -5.80517 -4.35393 -4.35348 -4.35391 -4.35412"
   style="fill:#f6ffd5;fill-opacity:1;stroke-width:0.5558123"
   sodipodi:nodetypes="ccssssccccccsccccccccccsssssssssssscssccccccssssccccccccccccccccccccccccccccccccccccccccccccccc" /><text
   xml:space="preserve"
   style="font-style:normal;font-weight:normal;font-size:46.72597885px;line-height:1.25;font-family:sans-serif;letter-spacing:0px;word-spacing:0px;fill:#f6ffd5;fill-opacity:1;stroke:none;stroke-width:1.16814947"
   x="211.12354"
   y="451.983"
   id="text5587"><tspan
     sodipodi:role="line"
     id="tspan5585"
     x="211.12354"
     y="451.983"
     style="font-style:normal;font-variant:normal;font-weight:bold;font-stretch:normal;font-family:'Source Code Pro';-inkscape-font-specification:'Source Code Pro Bold';fill:#f6ffd5;stroke-width:1.16814947">DHCP</tspan></text>
<ellipse
   style="opacity:1;fill:none;fill-opacity:1;stroke-width:0;stroke-miterlimit:4;stroke-dasharray:none"
   id="path5603"
   cx="263.9151"
   cy="433.98282"
   rx="107.70217"
   ry="66.632866" /><text
   xml:space="preserve"
   style="font-style:normal;font-weight:normal;font-size:86.5776825px;line-height:1.25;font-family:sans-serif;letter-spacing:0px;word-spacing:0px;fill:#4d4d4d;fill-opacity:1;stroke:none;stroke-width:2.16444206"
   x="41.502872"
   y="675.15607"
   id="text5642"><tspan
     sodipodi:role="line"
     id="tspan5640"
     x="41.502872"
     y="675.15607"
     style="fill:#4d4d4d;stroke-width:2.16444206">Next<tspan
   style="font-style:normal;font-variant:normal;font-weight:normal;font-stretch:normal;font-family:sans-serif;-inkscape-font-specification:'sans-serif Bold';fill:#6ad7e5;fill-opacity:1"
   id="tspan5644">DHCP</tspan></tspan></text>
</svg>